<svg xmlns="http://www.w3.org/2000/svg" xmlns:svg="http://www.w3.org/2000/svg" xmlns:xlink="http://www.w3.org/1999/xlink" id="Слой_1" width="90" height="90" x="0" y="0" enable-background="new 0 0 90 90" version="1.1" viewBox="0 0 90 90" xml:space="preserve"><metadata id="metadata23"/><path id="path3" fill="#31B7DA" d="M90,68.472c0,2.761-1.754,5.881-5,7.117s-31.5,12.39-35.333,13.528s-5.343,1.217-8.501,0 C38.008,87.9,7.701,76.954,5.057,75.588s-5-4.355-5-7.117V5c0-2.761,2.239-5,5-5H85c2.761,0,5,2.239,5,5V68.472z"/><g id="g11"><defs id="defs13"><rect id="SVGID_1_" width="90" height="90" x="0" y="0"/></defs><clipPath id="SVGID_2_"><use id="use17" overflow="visible" xlink:href="#SVGID_1_"/></clipPath></g><g style="display:inline" id="g3798"><g id="g3862" transform="matrix(1.3428238,0,0,1.3428238,-15.427071,-0.3197888)"><path id="path3800" d="m 18.124341,30.06081 c 5.1338,-9.639954 15.285007,-16.202278 26.968927,-16.202278 11.544041,0 21.591849,6.406138 26.782391,15.857382" style="fill:none;stroke:#fff;stroke-width:6.2216897;stroke-linecap:round;stroke-linejoin:bevel;stroke-miterlimit:4;stroke-opacity:1;stroke-dasharray:none"/><path id="path3802" d="m 26.270959,39.066409 c 3.963117,-6.203127 10.909495,-10.316013 18.81649,-10.316013 7.791935,0 14.651008,3.994059 18.641592,10.046551" style="fill:none;stroke:#fff;stroke-width:6.2216897;stroke-linecap:round;stroke-linejoin:bevel;stroke-miterlimit:4;stroke-opacity:1;stroke-dasharray:none;display:inline"/><path id="path3804" d="m 34.013978,47.683107 c 2.778282,-2.884346 6.680224,-4.678792 11.001281,-4.678792 4.305259,0 8.194462,1.781349 10.970763,4.647201" style="fill:none;stroke:#fff;stroke-width:6.2216897;stroke-linecap:round;stroke-linejoin:bevel;stroke-miterlimit:4;stroke-opacity:1;stroke-dasharray:none;display:inline"/></g></g></svg>